<?xml version="1.0" encoding="UTF-8"?>
<svg version="1.1" xmlns="http://www.w3.org/2000/svg" width="338" height="178">
<path d="M0 0 C111.54 0 223.08 0 338 0 C338 58.74 338 117.48 338 178 C226.46 178 114.92 178 0 178 C0 119.26 0 60.52 0 0 Z " fill="#FDFCFC" transform="translate(0,0)"/>
<path d="M0 0 C16.17 0 32.34 0 49 0 C49 58.74 49 117.48 49 178 C9.2453125 178.0309375 9.2453125 178.0309375 -31.3125 178.0625 C-39.66989502 178.071604 -48.02729004 178.08070801 -56.63793945 178.09008789 C-66.87145996 178.09460449 -66.87145996 178.09460449 -71.66764832 178.09544373 C-75.00550506 178.09637246 -78.34334578 178.1001084 -81.68119812 178.10557556 C-85.94863232 178.11247193 -90.21604346 178.11448427 -94.48348272 178.11307228 C-96.04350647 178.11336722 -97.60353108 178.11532794 -99.16355002 178.11921513 C-118.49593016 178.1651202 -118.49593016 178.1651202 -124 177 C-124.33 176.34 -124.66 175.68 -125 175 C-124.33170166 174.9906543 -123.66340332 174.98130859 -122.97485352 174.97167969 C-89.08145645 174.37853797 -59.89942886 164.01732868 -33 143 C-32.07445312 142.28457031 -31.14890625 141.56914062 -30.1953125 140.83203125 C-19.76351814 132.53195139 -9.32602736 123.45549519 -1 113 C0.14855469 111.59041016 0.14855469 111.59041016 1.3203125 110.15234375 C15.32844135 92.67674891 28.47829287 70.82560701 30 48 C30.0515625 47.2471875 30.103125 46.494375 30.15625 45.71875 C30.56085041 35.06427249 28.06894467 25.14147421 21 17 C14.61156906 10.33178377 5.51320871 7.91350104 -3 5 C-1.125 1.125 -1.125 1.125 0 0 Z " fill="#FEFDFD" transform="translate(289,0)"/>
<path d="M0 0 C8.23295642 7.15395136 12.15608283 16.5460227 13.22265625 27.23046875 C14.12746346 50.71611687 2.08636166 73.98838736 -12 92 C-12.59039062 92.78246094 -13.18078125 93.56492187 -13.7890625 94.37109375 C-17.92216961 99.7265453 -22.40709286 104.72740427 -27 109.6875 C-27.85392334 110.6141748 -27.85392334 110.6141748 -28.72509766 111.55957031 C-49.2837281 133.49581073 -78.53208504 152.95253087 -108 160 C-108.71148193 160.17370117 -109.42296387 160.34740234 -110.15600586 160.52636719 C-116.93857345 162.0506618 -123.50061439 162.36655583 -130.4375 162.375 C-131.49259766 162.39949219 -132.54769531 162.42398438 -133.63476562 162.44921875 C-144.41275159 162.48901439 -154.01439758 159.59905666 -161.99609375 152.1328125 C-167.6920521 146.25918206 -171.81603754 139.54953425 -172.09375 131.171875 C-172.0628125 130.45515625 -172.031875 129.7384375 -172 129 C-170 132 -170 132 -168.80859375 134.26953125 C-163.75769247 143.63744218 -156.97591269 147.84096098 -147 151 C-123.39078484 156.80088964 -98.41684745 145.97449252 -78.32080078 134.41357422 C-68.0418024 128.15274941 -58.6639815 120.31914641 -50 112 C-49.10925781 111.16082031 -48.21851563 110.32164063 -47.30078125 109.45703125 C-29.38583363 92.14174715 -12.4934368 67.51257267 -11.71875 41.82543945 C-11.57834981 31.65849168 -12.54546107 22.94303392 -19.2109375 14.81640625 C-26.93216107 6.97717271 -36.66405906 3.67847328 -47.53442383 3.5324707 C-48.38931396 3.54238037 -49.2442041 3.55229004 -50.125 3.5625 C-51.03080811 3.56789795 -51.93661621 3.5732959 -52.86987305 3.57885742 C-63.04992374 3.80547888 -72.32884209 6.10150343 -81.8125 9.8125 C-85 11 -85 11 -88 10 C-61.33535407 -3.80534888 -28.27394038 -18.02513547 0 0 Z " fill="#F80202" transform="translate(307,13)"/>
<path d="M0 0 C0.33 1.32 0.66 2.64 1 4 C0.34 4 -0.32 4 -1 4 C-0.01 6.475 -0.01 6.475 1 9 C-0.11375 9.556875 -1.2275 10.11375 -2.375 10.6875 C-5.15297552 12.25326802 -5.90536276 12.81895484 -7.4375 15.75 C-7.623125 16.4925 -7.80875 17.235 -8 18 C-7.360625 18.2475 -6.72125 18.495 -6.0625 18.75 C-4 20 -4 20 -3.25 22.125 C-3.1675 22.74375 -3.085 23.3625 -3 24 C-2.01 24 -1.02 24 0 24 C0 22.68 0 21.36 0 20 C1.32 20.33 2.64 20.66 4 21 C4 19.68 4 18.36 4 17 C4.99 17 5.98 17 7 17 C7.28875 16.401875 7.5775 15.80375 7.875 15.1875 C9 13 9 13 11 10 C11.66 10 12.32 10 13 10 C9.17796749 18.29980589 2.15020449 25.04945827 -4 31.6875 C-4.56879883 32.30471924 -5.13759766 32.92193848 -5.72363281 33.55786133 C-26.28164943 55.49519787 -55.53184701 74.95247394 -85 82 C-85.71148193 82.17370117 -86.42296387 82.34740234 -87.15600586 82.52636719 C-93.93857345 84.0506618 -100.50061439 84.36655583 -107.4375 84.375 C-109.02014648 84.41173828 -109.02014648 84.41173828 -110.63476562 84.44921875 C-121.41275159 84.48901439 -131.01439758 81.59905666 -138.99609375 74.1328125 C-144.6920521 68.25918206 -148.81603754 61.54953425 -149.09375 53.171875 C-149.0628125 52.45515625 -149.031875 51.7384375 -149 51 C-147 54 -147 54 -145.80859375 56.26953125 C-140.75769247 65.63744218 -133.97591269 69.84096098 -124 73 C-100.39078484 78.80088964 -75.41684745 67.97449252 -55.32080078 56.41357422 C-45.0418024 50.15274941 -35.6639815 42.31914641 -27 34 C-26.10925781 33.16082031 -25.21851563 32.32164063 -24.30078125 31.45703125 C-14.60447078 22.08528348 -6.5621093 11.81713179 0 0 Z " fill="#F10707" transform="translate(284,91)"/>
<path d="M0 0 C14.19 0 28.38 0 43 0 C44.629375 4.063125 46.25875 8.12625 47.9375 12.3125 C48.45046631 13.59036377 48.96343262 14.86822754 49.49194336 16.18481445 C49.89550049 17.1924585 50.29905762 18.20010254 50.71484375 19.23828125 C51.12855225 20.26993408 51.54226074 21.30158691 51.96850586 22.36450195 C52.69627764 24.2239804 53.36854835 26.10564505 54 28 C57.06273151 22.15173785 59.48366621 16.28028814 61.6875 10.0625 C62.29311311 8.36500582 62.90105835 6.66834124 63.51171875 4.97265625 C63.90556763 3.86289429 63.90556763 3.86289429 64.30737305 2.73071289 C65 1 65 1 66 0 C67.85287502 -0.07226502 69.70833878 -0.0838122 71.5625 -0.0625 C72.57441406 -0.05347656 73.58632813 -0.04445312 74.62890625 -0.03515625 C75.41136719 -0.02355469 76.19382812 -0.01195312 77 0 C76.41483861 3.2994286 75.61733735 6.24148175 74.32592773 9.33129883 C73.81551186 10.56200859 73.81551186 10.56200859 73.29478455 11.81758118 C72.7447451 13.12410896 72.7447451 13.12410896 72.18359375 14.45703125 C71.80767593 15.35999435 71.43175812 16.26295746 71.04444885 17.19328308 C69.84642994 20.06817075 68.64205955 22.94034754 67.4375 25.8125 C66.62262621 27.76479843 65.80816824 29.71727047 64.99414062 31.66992188 C63.00090788 36.44864034 61.0019758 41.22493809 59 46 C56.03 46 53.06 46 50 46 C47.73823562 40.64374971 45.47793523 35.28688496 43.21899414 29.92944336 C42.4501917 28.10668206 41.68098824 26.28408985 40.91137695 24.46166992 C39.80574972 21.84337925 38.70156221 19.22448552 37.59765625 16.60546875 C37.25283707 15.78974899 36.90801788 14.97402924 36.55274963 14.1335907 C36.23249313 13.37302872 35.91223663 12.61246674 35.58227539 11.82885742 C35.30025772 11.16045334 35.01824005 10.49204926 34.72767639 9.8033905 C34.09097249 8.22545587 33.53807709 6.61423127 33 5 C32.67 6.32 32.34 7.64 32 9 C28.37 9 24.74 9 21 9 C21 21.21 21 33.42 21 46 C17.7 46 14.4 46 11 46 C11 34.12 11 22.24 11 10 C7.37 10 3.74 10 0 10 C0 6.7 0 3.4 0 0 Z " fill="#0C0C0C" transform="translate(204,62)"/>
<path d="M0 0 C1.98 0 3.96 0 6 0 C6.33 3.3 6.66 6.6 7 10 C7.556875 9.278125 8.11375 8.55625 8.6875 7.8125 C14.84631778 0.32204594 14.84631778 0.32204594 18.37890625 -0.6640625 C20.5625 -0.625 20.5625 -0.625 24 0 C20.73279209 4.38894929 17.45101522 8.75259665 14 13 C15.51553404 16.47775179 17.5773456 18.9557984 20.125 21.75 C20.84945313 22.54921875 21.57390625 23.3484375 22.3203125 24.171875 C23.15175781 25.07679687 23.15175781 25.07679687 24 26 C25.80718446 23.28922331 26.92584229 20.93425297 28.12890625 17.9296875 C28.52400391 16.95128906 28.91910156 15.97289063 29.32617188 14.96484375 C29.73416016 13.94519531 30.14214844 12.92554687 30.5625 11.875 C31.37401958 9.850646 32.18770441 7.82715819 33.00390625 5.8046875 C33.36299072 4.90733887 33.7220752 4.00999023 34.09204102 3.08544922 C35 1 35 1 36 0 C37.99958364 -0.04080783 40.00045254 -0.04254356 42 0 C44.86309872 5.57417449 47.40406746 11.19146185 49.75 17 C50.8225 19.64 51.895 22.28 53 25 C54.485 12.625 54.485 12.625 56 0 C58.64 0 61.28 0 64 0 C64.34933594 0.92683594 64.69867188 1.85367188 65.05859375 2.80859375 C65.51363281 4.00613281 65.96867187 5.20367187 66.4375 6.4375 C66.88996094 7.63246094 67.34242187 8.82742187 67.80859375 10.05859375 C68.7144826 12.84445723 68.7144826 12.84445723 70 14 C71.98 9.38 73.96 4.76 76 0 C78.64 0 81.28 0 84 0 C84.99 14.355 84.99 14.355 86 29 C83.69 29 81.38 29 79 29 C78.01 22.07 78.01 22.07 77 15 C75.35 19.62 73.7 24.24 72 29 C70.35 28.67 68.7 28.34 67 28 C65.35 23.05 63.7 18.1 62 13 C61.67 18.28 61.34 23.56 61 29 C56.38 29 51.76 29 47 29 C46.34 27.02 45.68 25.04 45 23 C41.04 23 37.08 23 33 23 C32.67 24.98 32.34 26.96 32 29 C19.57111056 30.64061341 19.57111056 30.64061341 15.30810547 27.92041016 C12.04876864 25.00416142 9.48097462 21.5959538 7 18 C6.67 21.63 6.34 25.26 6 29 C4.02 29 2.04 29 0 29 C0 19.43 0 9.86 0 0 Z " fill="#090909" transform="translate(8,76)"/>
<path d="M0 0 C10.56 0 21.12 0 32 0 C31.67 2.64 31.34 5.28 31 8 C27.37 8 23.74 8 20 8 C20 20.21 20 32.42 20 45 C16.7 45 13.4 45 10 45 C10 32.79 10 20.58 10 8 C6.7 8 3.4 8 0 8 C0 5.36 0 2.72 0 0 Z " fill="#010101" transform="translate(205,63)"/>
<path d="M0 0 C2.31 0 4.62 0 7 0 C7 3.63 7 7.26 7 11 C9.97 11 12.94 11 16 11 C16 7.37 16 3.74 16 0 C18.31 0 20.62 0 23 0 C23 9.57 23 19.14 23 29 C20.69 29 18.38 29 16 29 C16 25.04 16 21.08 16 17 C12.7 17 9.4 17 6 17 C6 20.96 6 24.92 6 29 C4.02 29 2.04 29 0 29 C0 19.43 0 9.86 0 0 Z " fill="#0E0E0E" transform="translate(171,76)"/>
<path d="M0 0 C2.31 0 4.62 0 7 0 C18 23.09621993 18 23.09621993 18 29 C15.69 29 13.38 29 11 29 C10.34 27.35 9.68 25.7 9 24 C5.37 23.67 1.74 23.34 -2 23 C-2.66 24.98 -3.32 26.96 -4 29 C-6.31 29 -8.62 29 -11 29 C-7.38181668 19.3142103 -3.73162376 9.64277997 0 0 Z " fill="#0B0B0B" transform="translate(151,76)"/>
<path d="M0 0 C2.31 0 4.62 0 7 0 C7.02505615 0.63091553 7.0501123 1.26183105 7.07592773 1.91186523 C7.19154137 4.75396825 7.31442316 7.59571083 7.4375 10.4375 C7.47681641 11.43072266 7.51613281 12.42394531 7.55664062 13.44726562 C7.59853516 14.39150391 7.64042969 15.33574219 7.68359375 16.30859375 C7.72025146 17.18314209 7.75690918 18.05769043 7.79467773 18.95874023 C7.78181066 20.9927402 7.78181066 20.9927402 9 22 C11.5 22.16666667 11.5 22.16666667 14 22 C15.61780157 20.38219843 15.22272147 18.54364482 15.31640625 16.30859375 C15.35830078 15.36435547 15.40019531 14.42011719 15.44335938 13.44726562 C15.50233398 11.95743164 15.50233398 11.95743164 15.5625 10.4375 C15.60568359 9.44041016 15.64886719 8.44332031 15.69335938 7.41601562 C15.79980298 4.9441585 15.90181928 2.4721969 16 0 C18.31 0 20.62 0 23 0 C23.11681812 3.54138618 23.187455 7.0822724 23.25 10.625 C23.30027344 12.12353516 23.30027344 12.12353516 23.3515625 13.65234375 C23.43256035 19.76768171 23.14794175 23.37581308 19 28 C16.31432703 29.34283649 14.12253147 29.24287519 11.125 29.3125 C10.07570313 29.34988281 9.02640625 29.38726562 7.9453125 29.42578125 C4.30771068 28.89992104 3.22138811 27.86714047 1 25 C-0.00005304 21.99984088 -0.11575585 20.02576244 -0.09765625 16.89453125 C-0.09443359 15.91162109 -0.09121094 14.92871094 -0.08789062 13.91601562 C-0.07951172 12.89185547 -0.07113281 11.86769531 -0.0625 10.8125 C-0.05798828 9.77673828 -0.05347656 8.74097656 -0.04882812 7.67382812 C-0.0370401 5.11582734 -0.02058515 2.55794267 0 0 Z " fill="#0B0B0B" transform="translate(96,76)"/>
<path d="M0 0 C2.637725 2.47314519 4.88733462 5.06904873 7 8 C6.67 8.66 6.34 9.32 6 10 C5.505 8.515 5.505 8.515 5 7 C4.01 7 3.02 7 2 7 C2 6.01 2 5.02 2 4 C1.38125 3.896875 0.7625 3.79375 0.125 3.6875 C-2 3 -2 3 -4 0 C-7.0882965 -0.93558491 -10.1843985 -1.52435071 -13.34765625 -2.15625 C-14.22292969 -2.4346875 -15.09820312 -2.713125 -16 -3 C-16.495 -4.485 -16.495 -4.485 -17 -6 C-35.47493792 -6.09862895 -35.47493792 -6.09862895 -53 -1 C-53 -0.67 -53 -0.34 -53 0 C-51.75863281 0.09796875 -50.51726562 0.1959375 -49.23828125 0.296875 C-47.59627026 0.44700172 -45.95434737 0.59809431 -44.3125 0.75 C-43.08756836 0.8428125 -43.08756836 0.8428125 -41.83789062 0.9375 C-36.73205024 1.43361405 -33.76765858 2.22466799 -30 6 C-30.60440918 5.85997559 -31.20881836 5.71995117 -31.83154297 5.57568359 C-37.98401694 4.2357167 -43.8331069 3.61373377 -50.125 3.625 C-51.03080811 3.62588623 -51.93661621 3.62677246 -52.86987305 3.62768555 C-63.06615204 3.80442703 -72.3137323 6.0955909 -81.8125 9.8125 C-85 11 -85 11 -88 10 C-61.45695059 -3.74239352 -28.13035369 -18.14861528 0 0 Z " fill="#D1191A" transform="translate(307,13)"/>
<path d="M0 0 C2 3 2 3 3.19140625 5.26953125 C8.24230753 14.63744218 15.02408731 18.84096098 25 22 C29.20324712 23.04717575 33.31442423 23.19108702 37.625 23.1875 C38.32850586 23.18886963 39.03201172 23.19023926 39.75683594 23.19165039 C44.91123812 23.14405502 49.73856457 22.5341609 54.765625 21.33984375 C57 21 57 21 61 22 C58.03 22.66 55.06 23.32 52 24 C52 24.66 52 25.32 52 26 C47.79168132 26.02914348 43.58338878 26.04684712 39.375 26.0625 C37.59029297 26.07506836 37.59029297 26.07506836 35.76953125 26.08789062 C34.61582031 26.09111328 33.46210938 26.09433594 32.2734375 26.09765625 C30.68668213 26.10551147 30.68668213 26.10551147 29.06787109 26.11352539 C25.96637654 25.99875578 23.04652343 25.57696282 20 25 C20 25.66 20 26.32 20 27 C25.24235749 30.17951113 29.60503754 30.53027979 35.5625 30.6875 C36.44131836 30.72093506 37.32013672 30.75437012 38.22558594 30.78881836 C45.14982488 31.03267419 52.07206937 31.11377988 59 31 C59 31.33 59 31.66 59 32 C53.29255787 33.28666752 47.70349843 33.26131295 41.875 33.3125 C40.79734375 33.34150391 39.7196875 33.37050781 38.609375 33.40039062 C27.70453867 33.48578995 18.09181769 30.69841263 10.00390625 23.1328125 C4.3079479 17.25918206 0.18396246 10.54953425 -0.09375 2.171875 C-0.0628125 1.45515625 -0.031875 0.7384375 0 0 Z " fill="#D41617" transform="translate(135,142)"/>
<path d="M0 0 C1.98 0 3.96 0 6 0 C6 7.59 6 15.18 6 23 C9.3 23 12.6 23 16 23 C16 24.98 16 26.96 16 29 C10.72 29 5.44 29 0 29 C0 19.43 0 9.86 0 0 Z " fill="#020202" transform="translate(123,76)"/>
<path d="M0 0 C1.25159912 0.00523682 2.50319824 0.01047363 3.79272461 0.01586914 C4.78942421 0.01799156 4.78942421 0.01799156 5.80625916 0.02015686 C7.93590735 0.02577021 10.06545175 0.03832485 12.19506836 0.05102539 C13.63582205 0.05603868 15.07657739 0.06060188 16.51733398 0.06469727 C20.05577938 0.07574394 23.59416375 0.09301747 27.13256836 0.11352539 C26.14256836 1.76352539 25.15256836 3.41352539 24.13256836 5.11352539 C25.12256836 5.44352539 26.11256836 5.77352539 27.13256836 6.11352539 C25.90924805 6.06711914 24.68592773 6.02071289 23.42553711 5.97290039 C6.46145614 5.52795203 -8.45700027 8.07927739 -23.96118164 15.03930664 C-26.86743164 16.11352539 -26.86743164 16.11352539 -29.86743164 15.11352539 C-29.20743164 15.11352539 -28.54743164 15.11352539 -27.86743164 15.11352539 C-27.86743164 14.45352539 -27.86743164 13.79352539 -27.86743164 13.11352539 C-24.55889529 9.80498904 -21.38545634 9.64956222 -16.86743164 9.11352539 C-11.94331374 7.88249591 -7.48073417 6.18480408 -2.86743164 4.11352539 C-3.19743164 3.12352539 -3.52743164 2.13352539 -3.86743164 1.11352539 C-2.86743164 0.11352539 -2.86743164 0.11352539 0 0 Z " fill="#FDF4F4" transform="translate(261.867431640625,-0.113525390625)"/>
<path d="M0 0 C0.66 0.33 1.32 0.66 2 1 C1.39671875 1.45890625 0.7934375 1.9178125 0.171875 2.390625 C-0.62734375 3.00421875 -1.4265625 3.6178125 -2.25 4.25 C-3.43335938 5.15492188 -3.43335938 5.15492188 -4.640625 6.078125 C-7.0354185 7.96235012 -7.0354185 7.96235012 -9.15625 10.15625 C-11.00738902 12.00738902 -12.61024078 12.97581748 -15 14 C-15 14.66 -15 15.32 -15 16 C-14.34 16.33 -13.68 16.66 -13 17 C-12 18 -12 18 -11.9375 20.5625 C-11.958125 21.366875 -11.97875 22.17125 -12 23 C-14.26504965 24.19984797 -16.53589888 25.38494769 -18.8125 26.5625 C-19.77639648 27.07586914 -19.77639648 27.07586914 -20.75976562 27.59960938 C-22.46926395 28.4765023 -24.23321294 29.24515617 -26 30 C-26.99 29.67 -27.98 29.34 -29 29 C-28.21625 28.2575 -27.4325 27.515 -26.625 26.75 C-24.43495469 24.45566682 -23.17268614 22.87841142 -22 20 C-21.01 20.33 -20.02 20.66 -19 21 C-20.80356252 18.76467187 -20.80356252 18.76467187 -23.3125 18.8125 C-25.95370209 18.99676991 -28.42122909 19.41056665 -31 20 C-27.6059894 17.23388136 -23.88464558 15.34075994 -20 13.375 C-12.72052485 9.61046376 -6.38173575 5.13391033 0 0 Z " fill="#F50405" transform="translate(243,137)"/>
<path d="M0 0 C0.33 0.99 0.66 1.98 1 3 C0.01 3.33 -0.98 3.66 -2 4 C-3.15559689 5.57736691 -3.15559689 5.57736691 -4.1875 7.4375 C-6.17926559 10.38001775 -7.5331009 11.53275898 -11 12.375 C-12.32920307 12.60823752 -13.66273213 12.81862966 -15 13 C-18.61845609 13.66644508 -18.61845609 13.66644508 -22 15 C-24.3329866 15.04022391 -26.66706666 15.04320247 -29 15 C-27.82421252 11.47263757 -27.12452867 10.89116209 -24 9 C-22.88625 8.71125 -21.7725 8.4225 -20.625 8.125 C-17.38176102 7.11847756 -16.27187935 6.61271324 -13.875 4.5 C-9.3040869 0.52529296 -6.00222148 -0.27917309 0 0 Z " fill="#F80302" transform="translate(223,155)"/>
<path d="M0 0 C0.78375 0.04125 1.5675 0.0825 2.375 0.125 C3.035 1.445 3.695 2.765 4.375 4.125 C5.035 4.125 5.695 4.125 6.375 4.125 C6.705 2.805 7.035 1.485 7.375 0.125 C9.025 0.125 10.675 0.125 12.375 0.125 C12.375 0.785 12.375 1.445 12.375 2.125 C11.385 2.455 10.395 2.785 9.375 3.125 C10.695 4.115 12.015 5.105 13.375 6.125 C13.045 7.445 12.715 8.765 12.375 10.125 C8.65900809 10.32586443 7.60291555 10.2769437 4.375 8.125 C3.715 8.785 3.055 9.445 2.375 10.125 C-0.125 10.375 -0.125 10.375 -2.625 10.125 C-4.625 8.125 -4.625 8.125 -4.875 5.125 C-4.55416156 1.2749387 -3.94115238 0.18767392 0 0 Z " fill="#E3E3E3" transform="translate(70.625,130.875)"/>
<path d="M0 0 C6.43925234 1.45794393 6.43925234 1.45794393 8.875 3.8125 C10.10988565 6.21366654 10.62968404 8.33372507 11 11 C11.99 11 12.98 11 14 11 C16.03621848 17.73083331 16.3022604 23.93025169 16.25 30.9375 C16.25773437 31.97068359 16.26546875 33.00386719 16.2734375 34.06835938 C16.24861148 43.86843033 14.68808089 51.40518504 10 60 C8.73398069 56.20194207 9.53102066 54.84179804 10.875 51.125 C14.85584858 40.01759733 16.13384825 26.47619231 12.046875 15.140625 C9.14530316 9.2075602 4.76978318 4.4892077 0 0 Z " fill="#C51F21" transform="translate(281,21)"/>
<path d="M0 0 C0.98097656 0.15339844 1.96195313 0.30679688 2.97265625 0.46484375 C7.11808732 1.05704819 11.25870695 1.32928282 15.4375 1.5625 C16.16904297 1.60568359 16.90058594 1.64886719 17.65429688 1.69335938 C19.43604715 1.79816821 21.21800402 1.89945521 23 2 C22.01 2.495 22.01 2.495 21 3 C21 3.66 21 4.32 21 5 C20.34 5 19.68 5 19 5 C19 5.66 19 6.32 19 7 C11.43801103 7.44701413 6.23664375 7.53574091 0 3 C0 2.01 0 1.02 0 0 Z " fill="#F80302" transform="translate(154,166)"/>
<path d="M0 0 C0.66 0 1.32 0 2 0 C-2.94840922 10.77436884 -12.94195614 19.47517921 -21 28 C-21.66 26.68 -22.32 25.36 -23 24 C-21.68 23.67 -20.36 23.34 -19 23 C-19 22.01 -19 21.02 -19 20 C-18.01 20 -17.02 20 -16 20 C-16 19.34 -16 18.68 -16 18 C-15.34 18 -14.68 18 -14 18 C-13.67 17.01 -13.34 16.02 -13 15 C-12.34 15 -11.68 15 -11 15 C-11 13.35 -11 11.7 -11 10 C-9.68 10.33 -8.36 10.66 -7 11 C-7 9.68 -7 8.36 -7 7 C-6.01 7 -5.02 7 -4 7 C-3.71125 6.401875 -3.4225 5.80375 -3.125 5.1875 C-2 3 -2 3 0 0 Z " fill="#D81719" transform="translate(295,101)"/>
<path d="M0 0 C0.556875 0.226875 1.11375 0.45375 1.6875 0.6875 C-0.2925 1.6775 -2.2725 2.6675 -4.3125 3.6875 C-3.64863281 3.48253906 -2.98476562 3.27757812 -2.30078125 3.06640625 C-0.97626953 2.66228516 -0.97626953 2.66228516 0.375 2.25 C1.68017578 1.84974609 1.68017578 1.84974609 3.01171875 1.44140625 C5.55775921 0.72405471 8.0878423 0.169959 10.6875 -0.3125 C10.6875 0.3475 10.6875 1.0075 10.6875 1.6875 C9.3675 1.6875 8.0475 1.6875 6.6875 1.6875 C6.6875 2.3475 6.6875 3.0075 6.6875 3.6875 C5.73875 3.97625 4.79 4.265 3.8125 4.5625 C0.63538422 5.45575109 0.63538422 5.45575109 -1.3125 7.6875 C-5.4920645 10.47387633 -7.45918677 9.48312512 -12.3125 8.6875 C-5.02717391 -0.67934783 -5.02717391 -0.67934783 0 0 Z " fill="#FDF5F0" transform="translate(224.3125,19.3125)"/>
<path d="M0 0 C5.00099986 4.13247888 5.64573967 11.44129392 6.2578125 17.58984375 C6.40717157 24.17231138 5.24022956 30.55523569 4 37 C3.67 37 3.34 37 3 37 C3.01047363 36.43079834 3.02094727 35.86159668 3.03173828 35.27514648 C3.07365718 32.6626437 3.09943888 30.05021201 3.125 27.4375 C3.14175781 26.54224609 3.15851563 25.64699219 3.17578125 24.72460938 C3.21470891 19.41098431 2.6507675 15.10237227 1 10 C0.73957864 8.19424815 0.52444952 6.38080247 0.375 4.5625 C0.30023438 3.69753906 0.22546875 2.83257813 0.1484375 1.94140625 C0.09945313 1.30074219 0.05046875 0.66007812 0 0 Z " fill="#CF1B1D" transform="translate(314,23)"/>
<path d="M0 0 C0.66 0 1.32 0 2 0 C2 1.32 2 2.64 2 4 C2.66 4 3.32 4 4 4 C4 4.66 4 5.32 4 6 C3.34 6 2.68 6 2 6 C2 8.64 2 11.28 2 14 C1.401875 13.814375 0.80375 13.62875 0.1875 13.4375 C-2.16408762 12.77906313 -2.16408762 12.77906313 -5 14 C-5 10.7 -5 7.4 -5 4 C-3.35 4 -1.7 4 0 4 C0 2.68 0 1.36 0 0 Z " fill="#A2A2A2" transform="translate(120,127)"/>
<path d="M0 0 C0 0.33 0 0.66 0 1 C-1.19753906 1.21914062 -2.39507812 1.43828125 -3.62890625 1.6640625 C-13.3124897 3.52267933 -22.08881404 5.88334804 -31.09375 9.92578125 C-34 11 -34 11 -37 10 C-36.34 10 -35.68 10 -35 10 C-35 9.34 -35 8.68 -35 8 C-31.69146365 4.69146365 -28.5180247 4.53603683 -24 4 C-20.65235399 3.11904052 -17.45424606 2.18582793 -14.25 0.875 C-9.50988952 -0.40118359 -4.87955749 -0.15628476 0 0 Z " fill="#FDDBD8" transform="translate(269,5)"/>
<path d="M0 0 C0.66 0 1.32 0 2 0 C2.33 1.65 2.66 3.3 3 5 C4.65 3.35 6.3 1.7 8 0 C8.66 0.33 9.32 0.66 10 1 C8.35 2.65 6.7 4.3 5 6 C6.3697164 9.99500618 8.25722422 12.80009492 11 16 C7.74456771 15.65120368 6.98126893 14.97866739 4.75 12.4375 C3.88375 11.2309375 3.88375 11.2309375 3 10 C2.67 11.98 2.34 13.96 2 16 C1.34 16 0.68 16 0 16 C0 10.72 0 5.44 0 0 Z " fill="#1B1B1B" transform="translate(39,125)"/>
<path d="M0 0 C1.72153338 2.58230007 3.26477534 5.18792129 4.8125 7.875 C7.1849574 11.86212742 9.53070869 14.93886061 13 18 C12.34 18.33 11.68 18.66 11 19 C11 18.34 11 17.68 11 17 C9.68 16.67 8.36 16.34 7 16 C7.99 17.32 8.98 18.64 10 20 C9.67 20.66 9.34 21.32 9 22 C3.87807873 15.9166825 0.3075903 10.02397497 -0.1875 1.9375 C-0.125625 1.298125 -0.06375 0.65875 0 0 Z " fill="#BD2424" transform="translate(135,142)"/>
<path d="M0 0 C3.0625 0.1875 3.0625 0.1875 5.0625 2.1875 C5.0625 3.1775 5.0625 4.1675 5.0625 5.1875 C2.4225 5.1875 -0.2175 5.1875 -2.9375 5.1875 C-2.6075 5.8475 -2.2775 6.5075 -1.9375 7.1875 C0.3725 7.1875 2.6825 7.1875 5.0625 7.1875 C4.0725 8.6725 4.0725 8.6725 3.0625 10.1875 C0.0625 10.5625 0.0625 10.5625 -2.9375 10.1875 C-4.9375 7.1875 -4.9375 7.1875 -4.625 4.0625 C-3.71016322 0.23681893 -3.71016322 0.23681893 0 0 Z " fill="#525252" transform="translate(89.9375,130.8125)"/>
<path d="M0 0 C0.66 0 1.32 0 2 0 C2.33 3.3 2.66 6.6 3 10 C4.32 9.34 5.64 8.68 7 8 C6.608125 8.721875 6.21625 9.44375 5.8125 10.1875 C4.64088949 13.06293369 4.64088949 13.06293369 6.375 15.8125 C7.179375 16.8953125 7.179375 16.8953125 8 18 C4.125 16.125 4.125 16.125 3 15 C2.67 15.99 2.34 16.98 2 18 C1.34 18 0.68 18 0 18 C0 12.06 0 6.12 0 0 Z " fill="#202020" transform="translate(104,123)"/>
<path d="M0 0 C0 0.66 0 1.32 0 2 C4.455 1.505 4.455 1.505 9 1 C9 1.33 9 1.66 9 2 C7.9378125 2.25394531 6.875625 2.50789063 5.78125 2.76953125 C-3.14796007 4.85649776 -3.14796007 4.85649776 -11.8125 7.8125 C-15 9 -15 9 -18 8 C-15.3773768 6.66180502 -12.75213401 5.3292849 -10.125 4 C-9.00544922 3.42765625 -9.00544922 3.42765625 -7.86328125 2.84375 C-7.14785156 2.4828125 -6.43242187 2.121875 -5.6953125 1.75 C-5.03547363 1.41484375 -4.37563477 1.0796875 -3.69580078 0.734375 C-2 0 -2 0 0 0 Z " fill="#C32024" transform="translate(237,15)"/>
<path d="M0 0 C9.11866359 1.10413881 16.06612917 4.26694245 22.0625 11.375 C22.701875 12.24125 23.34125 13.1075 24 14 C23.67 14.66 23.34 15.32 23 16 C22.67 15.01 22.34 14.02 22 13 C21.01 13 20.02 13 19 13 C19 12.01 19 11.02 19 10 C18.38125 9.896875 17.7625 9.79375 17.125 9.6875 C15 9 15 9 13 6 C9.9117035 5.06441509 6.8156015 4.47564929 3.65234375 3.84375 C2.77707031 3.5653125 1.90179688 3.286875 1 3 C0.67 2.01 0.34 1.02 0 0 Z " fill="#CA1D20" transform="translate(290,7)"/>
<path d="M0 0 C2.5 0.25 2.5 0.25 4.5 2.25 C4.5 3.24 4.5 4.23 4.5 5.25 C1.86 5.25 -0.78 5.25 -3.5 5.25 C-2.51 6.735 -2.51 6.735 -1.5 8.25 C0.48 7.92 2.46 7.59 4.5 7.25 C3.51 8.735 3.51 8.735 2.5 10.25 C0 10.5625 0 10.5625 -2.5 10.25 C-4.5 8.25 -4.5 8.25 -4.75 5.25 C-4.43608753 1.48305032 -3.83691092 0.38369109 0 0 Z " fill="#080808" transform="translate(70.5,130.75)"/>
<path d="M0 0 C0.66 0.99 1.32 1.98 2 3 C1.34 3 0.68 3 0 3 C0.2475 3.7425 0.495 4.485 0.75 5.25 C0.87375 6.61125 0.87375 6.61125 1 8 C-0.9375 10.125 -0.9375 10.125 -3 12 C-3 12.99 -3 13.98 -3 15 C-3.66 15 -4.32 15 -5 15 C-5 15.66 -5 16.32 -5 17 C-9.31818182 21.65909091 -9.31818182 21.65909091 -12 23 C-10.43885694 18.71498755 -8.29630751 14.86035866 -6 10.9375 C-2.85295525 5.54840377 -2.85295525 5.54840377 0 0 Z " fill="#FEDEDB" transform="translate(311,77)"/>
<path d="M0 0 C6.43925234 1.45794393 6.43925234 1.45794393 8.875 3.8125 C10.10988565 6.21366654 10.62968404 8.33372507 11 11 C11.99 11 12.98 11 14 11 C14.33 13.64 14.66 16.28 15 19 C12.54634023 16.77901487 11.20156352 14.64684957 9.75 11.6875 C7.54096217 7.5463985 5.0586105 4.93624687 1.35546875 2.09375 C0.90816406 1.7328125 0.46085937 1.371875 0 1 C0 0.67 0 0.34 0 0 Z " fill="#D31619" transform="translate(281,21)"/>
<path d="M0 0 C0 3.29223784 -0.50518132 5.08510357 -2 8 C-2.61875 8.28875 -3.2375 8.5775 -3.875 8.875 C-7.25435696 10.66407133 -8.21287058 13.66402508 -10 17 C-10.66 17.66 -11.32 18.32 -12 19 C-14.125 18.625 -14.125 18.625 -16 18 C-15.62190186 17.5968457 -15.24380371 17.19369141 -14.85424805 16.77832031 C-13.12995293 14.9374509 -11.40870626 13.09375761 -9.6875 11.25 C-9.09259766 10.61578125 -8.49769531 9.9815625 -7.88476562 9.328125 C-5.08572094 6.32579774 -2.35829368 3.37142346 0 0 Z " fill="#FDE1DF" transform="translate(292,108)"/>
<path d="M0 0 C1.3171008 3.01707975 0.91942042 4.25138558 -0.109375 7.4609375 C-0.64480783 8.77036234 -1.19211786 10.07498106 -1.75 11.375 C-2.01554687 12.02210937 -2.28109375 12.66921875 -2.5546875 13.3359375 C-4.20611719 17.31219539 -6.03101374 21.16877975 -8 25 C-8.33 25 -8.66 25 -9 25 C-9 23.35 -9 21.7 -9 20 C-8.34 20 -7.68 20 -7 20 C-7 18.02 -7 16.04 -7 14 C-6.34 14 -5.68 14 -5 14 C-4.87753906 13.44828125 -4.75507813 12.8965625 -4.62890625 12.328125 C-3.92006389 9.70408745 -2.96388744 7.2663047 -1.9375 4.75 C-1.57527344 3.85796875 -1.21304687 2.9659375 -0.83984375 2.046875 C-0.56269531 1.37140625 -0.28554688 0.6959375 0 0 Z " fill="#CC1A18" transform="translate(316,60)"/>
<path d="M0 0 C2.35171131 0.59861742 4.6859378 1.26924352 7 2 C7.33 2.66 7.66 3.32 8 4 C7.34 4 6.68 4 6 4 C5.67 4.99 5.34 5.98 5 7 C2.69 7.33 0.38 7.66 -2 8 C-1.125 2.25 -1.125 2.25 0 0 Z " fill="#F80202" transform="translate(237,145)"/>
<path d="M0 0 C0.66 0 1.32 0 2 0 C2 2.64 2 5.28 2 8 C3.32 8 4.64 8 6 8 C6 5.36 6 2.72 6 0 C6.66 0 7.32 0 8 0 C8.02689216 1.47906892 8.04634621 2.95827483 8.0625 4.4375 C8.07410156 5.26121094 8.08570313 6.08492187 8.09765625 6.93359375 C8 9 8 9 7 10 C5.00041636 10.04080783 2.99954746 10.04254356 1 10 C-0.60725635 6.78548731 -0.05748185 3.56387464 0 0 Z " fill="#212121" transform="translate(125,131)"/>
<path d="M0 0 C3.2914911 -0.08857863 6.58266805 -0.1409104 9.875 -0.1875 C10.7928125 -0.21263672 11.710625 -0.23777344 12.65625 -0.26367188 C19.15084728 -0.33227678 24.97838577 0.44535341 31 3 C31.66 3.66 32.32 4.32 33 5 C29.67974905 4.48919216 26.49993081 3.86664822 23.25 3 C15.67812607 1.24761467 7.73642674 1.31713508 0 1 C0 0.67 0 0.34 0 0 Z " fill="#FED8D8" transform="translate(246,16)"/>
<path d="M0 0 C1.32 0.66 2.64 1.32 4 2 C4 2.99 4 3.98 4 5 C4.66 5 5.32 5 6 5 C6 6.65 6 8.3 6 10 C5.01 8.68 4.02 7.36 3 6 C3 7.98 3 9.96 3 12 C2.01 11.34 1.02 10.68 0 10 C-0.1875 6.5625 -0.1875 6.5625 0 3 C0 2.01 0 1.02 0 0 Z M-5 2 C-3.68 2.33 -2.36 2.66 -1 3 C-1.99 3.495 -1.99 3.495 -3 4 C-3.66 3.34 -4.32 2.68 -5 2 Z " fill="#F6E1E3" transform="translate(133,139)"/>
<path d="M0 0 C0.33 1.32 0.66 2.64 1 4 C0.34 4 -0.32 4 -1 4 C-0.34 5.65 0.32 7.3 1 9 C-0.0725 9.5775 -1.145 10.155 -2.25 10.75 C-5.3026529 12.48375824 -7.64597393 14.3634908 -10 17 C-8.6243563 13.14958019 -6.83312893 10.1183679 -4.4375 6.8125 C-2.02799361 3.52121677 -2.02799361 3.52121677 0 0 Z " fill="#D31717" transform="translate(284,91)"/>
<path d="M0 0 C0.66 0.33 1.32 0.66 2 1 C1.39671875 1.45890625 0.7934375 1.9178125 0.171875 2.390625 C-0.62734375 3.00421875 -1.4265625 3.6178125 -2.25 4.25 C-3.43335938 5.15492188 -3.43335938 5.15492188 -4.640625 6.078125 C-7.04059412 7.95233522 -7.04059412 7.95233522 -9.09375 10.1875 C-11.59251035 12.5633705 -13.63162599 12.69378418 -17 13 C-14.21499574 9.89441971 -10.80517746 7.69673583 -7.375 5.375 C-3.50789596 2.90592686 -3.50789596 2.90592686 0 0 Z " fill="#CA1E20" transform="translate(243,137)"/>
<path d="M0 0 C0.33 0.66 0.66 1.32 1 2 C0.54625 2.391875 0.0925 2.78375 -0.375 3.1875 C-2.27642919 5.30832487 -3.06204028 7.33042235 -4 10 C-4.66 10 -5.32 10 -6 10 C-6 9.34 -6 8.68 -6 8 C-6.94875 8.515625 -7.8975 9.03125 -8.875 9.5625 C-9.90625 10.036875 -10.9375 10.51125 -12 11 C-12.66 10.67 -13.32 10.34 -14 10 C-9.38 6.7 -4.76 3.4 0 0 Z " fill="#FDE5E2" transform="translate(259,141)"/>
<path d="M0 0 C1.32 0 2.64 0 4 0 C4 0.66 4 1.32 4 2 C3.01 2.33 2.02 2.66 1 3 C2.32 3.66 3.64 4.32 5 5 C4.67 6.65 4.34 8.3 4 10 C2.35 10 0.7 10 -1 10 C-1.33 9.01 -1.66 8.02 -2 7 C0.475 7.495 0.475 7.495 3 8 C2.319375 7.4225 1.63875 6.845 0.9375 6.25 C0.298125 5.5075 -0.34125 4.765 -1 4 C-0.75 1.75 -0.75 1.75 0 0 Z " fill="#2E2E2E" transform="translate(59,131)"/>
<path d="M0 0 C0.66 1.32 1.32 2.64 2 4 C0.02 6.97 -1.96 9.94 -4 13 C-5.00000429 8.99998285 -4.80688405 6.94476647 -4 3 C-2.02 3.495 -2.02 3.495 0 4 C0 2.68 0 1.36 0 0 Z " fill="#D81314" transform="translate(302,88)"/>
<path d="M0 0 C1.65 0 3.3 0 5 0 C5 0.66 5 1.32 5 2 C4.01 2.33 3.02 2.66 2 3 C3.32 3.99 4.64 4.98 6 6 C5.67 7.32 5.34 8.64 5 10 C3.35 10 1.7 10 0 10 C-0.33 9.01 -0.66 8.02 -1 7 C1.475 7.495 1.475 7.495 4 8 C3.34 7.4225 2.68 6.845 2 6.25 C0 4 0 4 0 0 Z " fill="#2E2E2E" transform="translate(78,131)"/>
<path d="M0 0 C0 0.66 0 1.32 0 2 C-0.66 2 -1.32 2 -2 2 C-1.67 2.99 -1.34 3.98 -1 5 C-3.91499943 5.79560764 -6.74561419 6.25322499 -9.75 6.5625 C-10.94882813 6.68818359 -10.94882813 6.68818359 -12.171875 6.81640625 C-13.07679688 6.90728516 -13.07679688 6.90728516 -14 7 C-10.33997803 3.94998169 -4.92148529 0 0 0 Z " fill="#D41D1B" transform="translate(226,150)"/>
<path d="M0 0 C-1.98 0.99 -3.96 1.98 -6 3 C-6 3.99 -6 4.98 -6 6 C-9.47307692 8.10865385 -9.47307692 8.10865385 -12.140625 7.55859375 C-13.06101563 7.28208984 -13.06101563 7.28208984 -14 7 C-12.71064081 5.85157077 -11.41843421 4.70633773 -10.125 3.5625 C-9.04605469 2.60537109 -9.04605469 2.60537109 -7.9453125 1.62890625 C-4.87967011 -0.93810756 -3.75777555 -1.12733266 0 0 Z " fill="#E3C8C7" transform="translate(226,20)"/>
<path d="M0 0 C1.65 0 3.3 0 5 0 C2.11814245 2.27339111 -0.79708007 4.07542568 -4.0625 5.75 C-4.91972656 6.19859375 -5.77695313 6.6471875 -6.66015625 7.109375 C-9 8 -9 8 -12 7 C-10.21825212 4.69857565 -8.83695835 3.19965609 -5.953125 2.51171875 C-3.9753389 2.27676898 -1.98728128 2.13248542 0 2 C0 1.34 0 0.68 0 0 Z " fill="#CC181B" transform="translate(226,159)"/>
<path d="M0 0 C0.99 0.33 1.98 0.66 3 1 C-2.28 4.96 -7.56 8.92 -13 13 C-13 12.01 -13 11.02 -13 10 C-12.34 10 -11.68 10 -11 10 C-11 9.34 -11 8.68 -11 8 C-8.69921875 6.01953125 -8.69921875 6.01953125 -5.6875 3.8125 C-4.70136719 3.07644531 -3.71523438 2.34039062 -2.69921875 1.58203125 C-1.36310547 0.79892578 -1.36310547 0.79892578 0 0 Z " fill="#C82426" transform="translate(261,137)"/>
<path d="M0 0 C0.66 0 1.32 0 2 0 C2 1.32 2 2.64 2 4 C2.66 4 3.32 4 4 4 C4 4.66 4 5.32 4 6 C3.34 6 2.68 6 2 6 C2 8.64 2 11.28 2 14 C1.34 14 0.68 14 0 14 C-0.19627391 12.41773035 -0.38165538 10.83410729 -0.5625 9.25 C-0.66691406 8.36828125 -0.77132812 7.4865625 -0.87890625 6.578125 C-0.99456676 4.11567549 -0.73638695 2.33461936 0 0 Z " fill="#2D2D2D" transform="translate(120,127)"/>
<path d="M0 0 C3.79979982 3.25697128 6.48005185 7.22568435 8 12 C7.60546875 14.25 7.60546875 14.25 7 16 C6.87625 15.195625 6.7525 14.39125 6.625 13.5625 C6.41875 12.716875 6.2125 11.87125 6 11 C5.34 10.67 4.68 10.34 4 10 C1.04816899 7.04816899 0.91336012 4.04488053 0 0 Z " fill="#FED9D3" transform="translate(287,27)"/>
<path d="M0 0 C0 3.94720688 -1.52509109 5.01555103 -4 8 C-4.4640625 9.11375 -4.4640625 9.11375 -4.9375 10.25 C-6 12 -6 12 -8.625 12.75 C-9.40875 12.8325 -10.1925 12.915 -11 13 C-10.62488281 12.56429687 -10.24976563 12.12859375 -9.86328125 11.6796875 C-6.54140223 7.81392401 -3.25357073 3.92342352 0 0 Z " fill="#C71E1E" transform="translate(273,108)"/>
<path d="M0 0 C1.43410153 3.78819273 0.51009497 6.06521279 -0.9375 9.75 C-1.31777344 10.73484375 -1.69804687 11.7196875 -2.08984375 12.734375 C-2.39019531 13.48203125 -2.69054687 14.2296875 -3 15 C-3.33 15 -3.66 15 -4 15 C-5.23076923 9.58461538 -5.23076923 9.58461538 -4.0625 6.625 C-3.711875 6.08875 -3.36125 5.5525 -3 5 C-2.34 5 -1.68 5 -1 5 C-0.67 3.35 -0.34 1.7 0 0 Z " fill="#FEE0E1" transform="translate(293,66)"/>
<path d="M0 0 C-4.97504047 3.24900602 -7.88225104 4.49940808 -14 4 C-14 4.66 -14 5.32 -14 6 C-14.66 6 -15.32 6 -16 6 C-15.67 5.01 -15.34 4.02 -15 3 C-12.12890625 1.796875 -12.12890625 1.796875 -8.5625 0.75 C-7.38816406 0.39421875 -6.21382812 0.0384375 -5.00390625 -0.328125 C-2 -1 -2 -1 0 0 Z " fill="#FFE2E2" transform="translate(214,169)"/>
<path d="M0 0 C-3.06117568 2.62386487 -3.73173127 3 -8 3 C-8 3.66 -8 4.32 -8 5 C-10.64 5 -13.28 5 -16 5 C-13.13879225 3.09252817 -10.64745007 1.99646294 -7.4375 0.8125 C-6.46683594 0.44769531 -5.49617187 0.08289063 -4.49609375 -0.29296875 C-2 -1 -2 -1 0 0 Z " fill="#CB1C1D" transform="translate(212,158)"/>
<path d="M0 0 C2.375 -0.1875 2.375 -0.1875 5 0 C5.66 0.99 6.32 1.98 7 3 C6 4 6 4 2.4375 4.0625 C1.303125 4.041875 0.16875 4.02125 -1 4 C-0.67 2.68 -0.34 1.36 0 0 Z " fill="#737373" transform="translate(68,131)"/>
<path d="M0 0 C0.66 0 1.32 0 2 0 C2.66 2.31 3.32 4.62 4 7 C2.02 7 0.04 7 -2 7 C-1.34 4.69 -0.68 2.38 0 0 Z " fill="#E5E5E5" transform="translate(46,86)"/>
<path d="M0 0 C0.99 0.33 1.98 0.66 3 1 C0.03 3.97 -2.94 6.94 -6 10 C-6.33 9.01 -6.66 8.02 -7 7 C-5.21653709 3.96811304 -4.40424844 3.13474948 -1 2 C-0.67 1.34 -0.34 0.68 0 0 Z " fill="#FFE6E4" transform="translate(258,121)"/>
<path d="M0 0 C1.4606285 2.64738916 2 3.89448334 2 7 C0.6875 8.5 0.6875 8.5 -1 10 C-2.00365627 10.99633031 -3.00419282 11.99582469 -4 13 C-3.52140759 11.39566191 -3.04210442 9.79153584 -2.5625 8.1875 C-2.29566406 7.29417969 -2.02882813 6.40085937 -1.75390625 5.48046875 C-1.19612127 3.64526945 -0.60655425 1.81966274 0 0 Z " fill="#FCE0E1" transform="translate(316,64)"/>
<path d="M0 0 C2.50037734 2.17424117 3.43628586 3.73045798 4 7 C2.02 7 0.04 7 -2 7 C-1.34 4.69 -0.68 2.38 0 0 Z " fill="#EDEDED" transform="translate(154,86)"/>
<path d="M0 0 C2.31 0.66 4.62 1.32 7 2 C6.34 3.98 5.68 5.96 5 8 C2.2175651 6.60878255 1.44789935 4.69835788 0 2 C0 1.34 0 0.68 0 0 Z " fill="#E40B0C" transform="translate(142,158)"/>
<path d="M0 0 C0.350625 0.66 0.70125 1.32 1.0625 2 C2.96557142 4.41103961 2.96557142 4.41103961 6.6875 4.25 C7.780625 4.1675 8.87375 4.085 10 4 C9.01 5.485 9.01 5.485 8 7 C5 7.375 5 7.375 2 7 C0 4 0 4 0 0 Z " fill="#383838" transform="translate(85,134)"/>
<path d="M0 0 C2.64 0 5.28 0 8 0 C6.515 1.98 6.515 1.98 5 4 C3.0625 3.6875 3.0625 3.6875 1 3 C0.67 2.01 0.34 1.02 0 0 Z " fill="#C8C8C8" transform="translate(67,136)"/>
<path d="M0 0 C0.66 0 1.32 0 2 0 C2 2.97 2 5.94 2 9 C1.01 9.495 1.01 9.495 0 10 C-0.99 9.34 -1.98 8.68 -3 8 C-2.01 8 -1.02 8 0 8 C0 5.36 0 2.72 0 0 Z " fill="#383637" transform="translate(131,131)"/>
<path d="M0 0 C-1 3 -1 3 -2.75 4.1875 C-5.29960574 5.10819096 -7.30923081 5.14948718 -10 5 C-3.63636364 0 -3.63636364 0 0 0 Z " fill="#FED2CE" transform="translate(231,160)"/>
<path d="M0 0 C2.3125 0.1875 2.3125 0.1875 4 1 C-0.39453125 5.00390625 -0.39453125 5.00390625 -2 6 C-2.99 5.67 -3.98 5.34 -5 5 C-2.75 2.4375 -2.75 2.4375 0 0 Z " fill="#FEE3DD" transform="translate(239,137)"/>
<path d="M0 0 C1.98 0 3.96 0 6 0 C4.02 2.31 2.04 4.62 0 7 C-1.33332095 4.3333581 -0.67102033 2.83319697 0 0 Z " fill="#D01618" transform="translate(265,130)"/>
<path d="M0 0 C0.66 0 1.32 0 2 0 C0.22054913 4.04420651 -2.39529673 7.46078487 -5 11 C-5.33 10.01 -5.66 9.02 -6 8 C-4.85546875 5.95703125 -4.85546875 5.95703125 -3.1875 3.8125 C-2.37345703 2.73935547 -2.37345703 2.73935547 -1.54296875 1.64453125 C-1.03378906 1.10183594 -0.52460938 0.55914062 0 0 Z " fill="#C82121" transform="translate(295,101)"/>
<path d="M0 0 C4.95 0.99 4.95 0.99 10 2 C10 2.66 10 3.32 10 4 C7.03 3.67 4.06 3.34 1 3 C0.67 2.01 0.34 1.02 0 0 Z " fill="#DA1111" transform="translate(290,7)"/>
<path d="M0 0 C2.64 0 5.28 0 8 0 C7.01 1.485 7.01 1.485 6 3 C3.375 3.1875 3.375 3.1875 1 3 C0.67 2.01 0.34 1.02 0 0 Z " fill="#D4D4D4" transform="translate(87,136)"/>
<path d="M0 0 C1 4 1 4 1 6 C-0.98 6.33 -2.96 6.66 -5 7 C-3.35 4.69 -1.7 2.38 0 0 Z " fill="#FCF1ED" transform="translate(275,127)"/>
<path d="M0 0 C-1 3 -1 3 -4 5 C-6.6875 5.125 -6.6875 5.125 -9 5 C-2.87096774 0 -2.87096774 0 0 0 Z " fill="#FDD8D8" transform="translate(240,155)"/>
<path d="M0 0 C0 0.66 0 1.32 0 2 C-1.32 2 -2.64 2 -4 2 C-4 2.66 -4 3.32 -4 4 C-7 5 -7 5 -9.1875 4.0625 C-9.785625 3.711875 -10.38375 3.36125 -11 3 C-9.54293274 2.49632243 -8.08429904 1.99717444 -6.625 1.5 C-5.81289062 1.2215625 -5.00078125 0.943125 -4.1640625 0.65625 C-2 0 -2 0 0 0 Z " fill="#FEDEDE" transform="translate(235,19)"/>
<path d="M0 0 C-2.26185454 2.26185454 -3.96983561 3.03921617 -7 4 C-7.99 3.67 -8.98 3.34 -10 3 C-3.375 -1.125 -3.375 -1.125 0 0 Z " fill="#9E393E" transform="translate(229,20)"/>
<path d="M0 0 C0.33 0.99 0.66 1.98 1 3 C-3.455 3.495 -3.455 3.495 -8 4 C-8 3.34 -8 2.68 -8 2 C-2.25 0 -2.25 0 0 0 Z " fill="#DF0C0F" transform="translate(245,13)"/>
<path d="M0 0 C0.33 0.66 0.66 1.32 1 2 C1.99 2.33 2.98 2.66 4 3 C1.69 3.66 -0.62 4.32 -3 5 C-3.33 4.01 -3.66 3.02 -4 2 C-2.68 1.34 -1.36 0.68 0 0 Z " fill="#BA282B" transform="translate(232,16)"/>
<path d="M0 0 C2.475 0.495 2.475 0.495 5 1 C5.33 1.99 5.66 2.98 6 4 C5.01 4.66 4.02 5.32 3 6 C2.01 4.02 1.02 2.04 0 0 Z " fill="#FDE4E0" transform="translate(312,18)"/>
</svg>
